# xmcd
#
# Track frame offsets: 
#        150
#        18025
#        34535
#        52614
#        78947
#        93377
#        114168
#        139383
#        158277
#        168753
#        187414
#        206330
#
# Disc length: 2940 seconds
#
# Revision: 1
# Processed by: cddbd v1.5.2PL0 Copyright (c) Steve Scherf et al.
# Submitted via: ExactAudioCopy v0.95b3
#
DISCID=810b7a0c
DTITLE=Various_Artists - V hospode 6
DYEAR=2002
DGENRE=Country
TTITLE0=Vo zejtrejsi den se nestarame
TTITLE1=Boze ja byl vul
TTITLE2=Deda nezbeda
TTITLE3=In Tyrol
TTITLE4=Maly domek nad osadou
TTITLE5=Myslivecek
TTITLE6=Po Palackym moste vedou koleje
TTITLE7=Cabuzy
TTITLE8=Dvanact apostolu
TTITLE9=Tyrolak
TTITLE10=Ctirad a Sarka
TTITLE11=Sam si varit,sam si prat
EXTD=YEAR: 2002
EXTT0=
EXTT1=
EXTT2=
EXTT3=
EXTT4=
EXTT5=
EXTT6=
EXTT7=
EXTT8=
EXTT9=
EXTT10=
EXTT11=
PLAYORDER=
